{
  "accessors": [
    {
      "bufferView": 2,
      "componentType": 5126,
      "count": 17728,
      "max": [
        29.67816162109375,
        34.253318786621094,
        18.87249755859375
      ],
      "min": [
        -24.190460205078125,
        -39.77696990966797,
        -25.881378173828125
      ],
      "type": "VEC3"
    },
    {
      "bufferView": 2,
      "byteOffset": 212736,
      "componentType": 5126,
      "count": 17728,
      "max": [
        0.9998438954353333,
        1.0,
        0.9999937415122986
      ],
      "min": [
        -0.999269962310791,
        -1.0,
        -0.9968621134757996
      ],
      "type": "VEC3"
    },
    {
      "bufferView": 1,
      "componentType": 5126,
      "count": 17728,
      "max": [
        0.9987800121307373,
        0.9947100281715393
      ],
      "min": [
        0.006719999946653843,
        0.0
      ],
      "type": "VEC2"
    },
    {
      "bufferView": 0,
      "componentType": 5125,
      "count": 94848,
      "type": "SCALAR"
    },
    {
      "bufferView": 2,
      "byteOffset": 425472,
      "componentType": 5126,
      "count": 3087,
      "max": [
        -10.715025901794434,
        29.38800621032715,
        9.764114379882813
      ],
      "min": [
        -17.364683151245117,
        25.466596603393555,
        3.212371349334717
      ],
      "type": "VEC3"
    },
    {
      "bufferView": 2,
      "byteOffset": 462516,
      "componentType": 5126,
      "count": 3087,
      "max": [
        0.994616687297821,
        0.999997615814209,
        0.9996935129165649
      ],
      "min": [
        -0.9992606043815613,
        -0.996163010597229,
        -0.9996420741081238
      ],
      "type": "VEC3"
    },
    {
      "bufferView": 1,
      "byteOffset": 141824,
      "componentType": 5126,
      "count": 3087,
      "max": [
        1.0,
        1.0
      ],
      "min": [
        0.0,
        0.0
      ],
      "type": "VEC2"
    },
    {
      "bufferView": 0,
      "byteOffset": 379392,
      "componentType": 5125,
      "count": 17856,
      "type": "SCALAR"
    }
  ],
  "asset": {
    "extras": {
      "author": "ROY (https://sketchfab.com/roy.gearloft.in)",
      "license": "CC-BY-4.0 (http://creativecommons.org/licenses/by/4.0/)",
      "source": "https://sketchfab.com/3d-models/fuel-tank-742d39daf01c441e946af6ba4f2ad942",
      "title": "Fuel Tank"
    },
    "generator": "Sketchfab-13.83.0",
    "version": "2.0"
  },
  "bufferViews": [
    {
      "buffer": 0,
      "byteLength": 450816,
      "name": "floatBufferViews",
      "target": 34963
    },
    {
      "buffer": 0,
      "byteLength": 166520,
      "byteOffset": 450816,
      "byteStride": 8,
      "name": "floatBufferViews",
      "target": 34962
    },
    {
      "buffer": 0,
      "byteLength": 499560,
      "byteOffset": 617336,
      "byteStride": 12,
      "name": "floatBufferViews",
      "target": 34962
    }
  ],
  "buffers": [
    {
      "byteLength": 1116896,
      "uri": "scene.bin"
    }
  ],
  "materials": [
    {
      "doubleSided": true,
      "name": "Standard_1.001",
      "pbrMetallicRoughness": {
        "baseColorFactor": [
          1.0,
          0.0028856900000000002,
          0.0,
          1.0
        ],
        "metallicFactor": 0.0,
        "roughnessFactor": 0.2544769660250393
      }
    },
    {
      "doubleSided": true,
      "name": "Standard_1",
      "pbrMetallicRoughness": {
        "metallicFactor": 0.0,
        "roughnessFactor": 0.5
      }
    }
  ],
  "meshes": [
    {
      "name": "Object_0",
      "primitives": [
        {
          "attributes": {
            "NORMAL": 1,
            "POSITION": 0,
            "TEXCOORD_0": 2
          },
          "indices": 3,
          "material": 0,
          "mode": 4
        }
      ]
    },
    {
      "name": "Object_1",
      "primitives": [
        {
          "attributes": {
            "NORMAL": 5,
            "POSITION": 4,
            "TEXCOORD_0": 6
          },
          "indices": 7,
          "material": 1,
          "mode": 4
        }
      ]
    }
  ],
  "nodes": [
    {
      "children": [
        1
      ],
      "matrix": [
        0.6666666865348816,
        0.0,
        0.0,
        0.0,
        0.0,
        1.4802974102831747e-16,
        -0.6666666865348816,
        0.0,
        0.0,
        0.6666666865348816,
        1.4802974102831747e-16,
        0.0,
        0.0,
        0.0,
        0.0,
        1.0
      ],
      "name": "Sketchfab_model"
    },
    {
      "children": [
        2
      ],
      "name": "root"
    },
    {
      "children": [
        3
      ],
      "matrix": [
        1.0,
        0.0,
        0.0,
        0.0,
        0.0,
        2.220446049250313e-16,
        1.0,
        0.0,
        0.0,
        -1.0,
        2.220446049250313e-16,
        0.0,
        0.0,
        0.0,
        0.0,
        1.0
      ],
      "name": "GLTF_SceneRootNode"
    },
    {
      "children": [
        4,
        5
      ],
      "matrix": [
        0.00858571436189218,
        0.0,
        0.005158694092731014,
        0.0,
        -0.0,
        0.010016307234764099,
        0.0,
        0.0,
        -0.005158688816491416,
        0.0,
        0.008585705580544563,
        0.0,
        0.0,
        0.3997654914855957,
        0.026206718757748604,
        1.0
      ],
      "name": "tank_0"
    },
    {
      "mesh": 0,
      "name": "Object_4"
    },
    {
      "mesh": 1,
      "name": "Object_5"
    }
  ],
  "scene": 0,
  "scenes": [
    {
      "name": "Sketchfab_Scene",
      "nodes": [
        0
      ]
    }
  ]
}
